# xmcd CD database file
#
# Track frame offsets:
#	150
#	16949
#	32263
#	52666
#	69256
#	87974
#	104050
#	125315
#	142913
#	161603
#	177127
#	193330
#	204175
#	223200
#	239052
#	260828
#	271518
#	287409
#	298967
#
# Disc length: 4116 seconds
#
# Revision: 0
# Processed by: cddbd v1.5.2PL0 Copyright (c) Steve Scherf et al.
# Submitted via: CDex 1.51
#
DISCID=14101213
DTITLE=Михаил Щербаков - Целое лето
DYEAR=2005
DGENRE=Blues
TTITLE0=Поводырь
TTITLE1=Это не я
TTITLE2=Switzerland
TTITLE3=Не знаю, как там ландыш...
TTITLE4=Циркачка
TTITLE5=Надпись
TTITLE6=Кордебалет
TTITLE7=Ещё заклинание
TTITLE8=Кинематограф 2
TTITLE9=Волк
TTITLE10=Целое лето
TTITLE11=Инициалы
TTITLE12=Коллаж
TTITLE13=Интермедия 3
TTITLE14=Конец недели
TTITLE15=Чепуха, чепуха...
TTITLE16=Колёса
TTITLE17=У нас опять зима
TTITLE18=Прощальная 1
EXTD=YEAR: 2005
EXTT0=
EXTT1=
EXTT2=
EXTT3=
EXTT4=
EXTT5=
EXTT6=
EXTT7=
EXTT8=
EXTT9=
EXTT10=
EXTT11=
EXTT12=
EXTT13=
EXTT14=
EXTT15=
EXTT16=
EXTT17=
EXTT18=
PLAYORDER=
